<svg width="33" height="33" viewBox="0 0 33 33" fill="none" xmlns="http://www.w3.org/2000/svg">
<path fill-rule="evenodd" clip-rule="evenodd" d="M16.0344 14.8628L23.0989 7.8191C23.6201 7.2994 24.4652 7.2994 24.9864 7.8191C25.5077 8.3388 25.5077 9.1814 24.9864 9.7011L17.9219 16.7448L24.9864 23.7884C25.5077 24.3081 25.5077 25.1507 24.9864 25.6704C24.4652 26.1901 23.6201 26.1901 23.0989 25.6704L16.0344 18.6268L8.9699 25.6704C8.44866 26.1901 7.60357 26.1901 7.08233 25.6704C6.5611 25.1507 6.5611 24.3081 7.08233 23.7884L14.1468 16.7448L7.08233 9.7011C6.5611 9.1814 6.5611 8.3388 7.08233 7.8191C7.60357 7.2994 8.44866 7.2994 8.9699 7.8191L16.0344 14.8628Z" fill="#F456DB"/>
<mask id="mask0_67_9" style="mask-type:alpha" maskUnits="userSpaceOnUse" x="6" y="7" width="20" height="20">
<path fill-rule="evenodd" clip-rule="evenodd" d="M16.0344 14.8628L23.0989 7.8191C23.6201 7.2994 24.4652 7.2994 24.9864 7.8191C25.5077 8.3388 25.5077 9.1814 24.9864 9.7011L17.9219 16.7448L24.9864 23.7884C25.5077 24.3081 25.5077 25.1507 24.9864 25.6704C24.4652 26.1901 23.6201 26.1901 23.0989 25.6704L16.0344 18.6268L8.9699 25.6704C8.44866 26.1901 7.60357 26.1901 7.08233 25.6704C6.5611 25.1507 6.5611 24.3081 7.08233 23.7884L14.1468 16.7448L7.08233 9.7011C6.5611 9.1814 6.5611 8.3388 7.08233 7.8191C7.60357 7.2994 8.44866 7.2994 8.9699 7.8191L16.0344 14.8628Z" fill="white"/>
</mask>
<g mask="url(#mask0_67_9)">
<rect x="0.0180664" y="0.775452" width="32.0331" height="31.9386" fill="#F456DB"/>
</g>
</svg>
